<?xml version="1.0" encoding="utf-8"?>
<!-- Generator: Adobe Illustrator 21.0.0, SVG Export Plug-In . SVG Version: 6.00 Build 0)  -->
<svg version="1.1" id="Calque_1" xmlns="http://www.w3.org/2000/svg" xmlns:xlink="http://www.w3.org/1999/xlink" x="0px" y="0px"
	 viewBox="0 0 216.3 64.5" style="enable-background:new 0 0 216.3 64.5;" xml:space="preserve">
<style type="text/css">
	.st0{fill:#4F4F4F;}
	.st1{fill:#DA002F;}
</style>
<title>logo_HVS</title>
<path class="st0" d="M186.2,44.5c0,1.5,1.1,2,2.4,2c0.6,0,1.2-0.1,1.8-0.4c0.5-0.3,0.8-0.9,0.8-1.5c0-0.4-0.2-0.8-0.5-1.1
	c-0.4-0.3-0.7-0.4-2.4-0.8c-0.3-0.1-0.9-0.2-0.9-0.8c0-0.9,1.1-0.9,1.2-0.9c0.4,0,1.2,0.1,1.2,1h1.2c0-0.3,0-0.6-0.2-0.9
	c-0.5-0.7-1.3-1-2.2-0.9c-1.4,0-2.4,0.7-2.4,1.8c0,1.3,1.1,1.5,2.3,1.8c0.9,0.2,1.3,0.3,1.3,0.9c0,0.2-0.1,0.4-0.2,0.6
	c-0.3,0.3-0.7,0.4-1.1,0.4c-1.1,0-1.3-0.6-1.3-1.1L186.2,44.5z M183.6,46.3h1.1v-6.1h-1.1V46.3z M183.5,38.9h1.4v-1.2h-1.4V38.9z
	 M180.6,46.3h1.1v-8.7h-1.1V46.3z M177.6,46.3h1.1v-8.7h-1.1V46.3z M174.6,43.4c0.1,0.5,0,1.1-0.3,1.6c-0.3,0.4-0.8,0.7-1.3,0.7
	c-1,0-1.3-0.7-1.3-1c0-1.2,1.7-1.2,2.2-1.2C174.2,43.3,174.4,43.3,174.6,43.4 M175.8,46.3c-0.1-0.5-0.1-1-0.1-1.5v-2.9
	c0-0.3-0.1-0.6-0.2-0.9c-0.5-0.6-1.3-1-2.1-0.9c-0.7-0.1-1.4,0.2-2,0.7c-0.2,0.3-0.4,0.8-0.4,1.2h1.1c0-0.2,0.1-1,1.2-1
	c0.4,0,0.8,0.1,1.1,0.4c0.2,0.3,0.2,0.6,0.2,1.3c-0.4,0-0.5,0-0.8,0c-0.7,0-1.4,0.1-2.1,0.4c-0.7,0.3-1.1,1-1.1,1.8
	c0,1,0.8,1.8,2.1,1.8c0.8,0,1.5-0.4,1.9-1.1c0,0.3,0,0.6,0.1,0.9L175.8,46.3z M158.6,37.6l2.5,8.7h1.3l2.1-7.4l2,7.5h1.3l2.7-8.7
	h-1.2l-2,7.2l-2-7.2h-1.5l-2.1,7.2l-1.9-7.2L158.6,37.6z M152.9,46.3h1.1v-8.7h-1.1V46.3z M149.9,43.3c0.1,0.5,0,1.1-0.3,1.6
	c-0.3,0.4-0.8,0.7-1.3,0.7c-1,0-1.3-0.7-1.3-1c0-1.2,1.7-1.2,2.2-1.2C149.5,43.3,149.7,43.3,149.9,43.3 M151.1,46.2
	c-0.1-0.5-0.1-1-0.1-1.5v-2.9c0-0.3-0.1-0.6-0.2-0.9c-0.5-0.6-1.3-1-2.1-0.9c-0.7-0.1-1.4,0.2-2,0.7c-0.2,0.4-0.4,0.8-0.4,1.2h1.1
	c0-0.2,0.1-1,1.2-1c0.4,0,0.8,0.1,1.1,0.4c0.2,0.3,0.2,0.6,0.2,1.3c-0.4,0-0.5,0-0.8,0c-0.7,0-1.4,0.1-2.1,0.4
	c-0.7,0.3-1.1,1-1.1,1.8c0,1,0.8,1.8,2.1,1.8c0.8,0,1.5-0.4,1.9-1.1c0,0.3,0,0.6,0.1,0.9L151.1,46.2z M141.4,41h1.1v4
	c0,1,0.5,1.3,1.5,1.3c0.3,0,0.6,0,0.9-0.1v-0.7c-0.2,0-0.4,0.1-0.5,0.1c-0.8,0-0.8-0.5-0.8-0.8v-3.6h1.4v-0.8h-1.4v-1.6l-1.1,0.4
	v1.3h-1.1L141.4,41z M139.2,46.2h1.1v-6h-1.1V46.2z M139,38.9h1.4v-1.2H139V38.9z M133,43.5c0-0.5,0-2.5,1.8-2.5
	c1.3,0,1.7,1.1,1.7,2.2c0,0.7-0.1,1.3-0.5,1.9c-0.3,0.4-0.8,0.6-1.3,0.6C133.1,45.7,133,44.2,133,43.5 M131.9,48.7h1.1v-3
	c0.4,0.6,1.1,1,1.9,0.9c1.4,0,2.8-1,2.8-3.3s-1.2-3.1-2.6-3.1c-0.8,0-1.6,0.4-2.1,1.1v-1h-1.1c0,0.6,0,0.7,0,1L131.9,48.7z
	 M123.7,43.8c0,0.6,0.1,1.3,0.5,1.8c0.7,0.7,1.7,1.1,2.7,1c2.2,0,3.4-1.2,3.4-2.7c0-0.7-0.3-1.3-0.9-1.7c-0.5-0.3-0.7-0.4-2.8-0.9
	c-1.1-0.3-1.6-0.5-1.6-1.3s0.7-1.4,1.9-1.4c0.9,0,1.8,0.2,1.8,1.3h1.3c0-0.5-0.2-1.1-0.5-1.5c-0.7-0.6-1.6-0.9-2.5-0.9
	c-1.6,0-3.3,0.8-3.3,2.5c0,0.7,0.3,1.3,0.9,1.7c0.7,0.4,1.5,0.6,2.4,0.8c1.2,0.3,2,0.5,2,1.5c0,0.4-0.2,1.6-2,1.6
	c-2,0-2.1-1.1-2.1-1.7L123.7,43.8z"/>
<path class="st0" d="M211.4,30.3c0,1.5,1.1,2,2.4,2c0.6,0,1.2-0.1,1.8-0.4c0.5-0.3,0.8-0.9,0.8-1.5c0-0.4-0.2-0.8-0.5-1.1
	c-0.4-0.3-0.7-0.4-2.4-0.8c-0.3-0.1-0.9-0.2-0.9-0.8c0-0.9,1.1-0.9,1.2-0.9c0.4,0,1.2,0.1,1.2,1h1.2c0-0.3,0-0.6-0.2-0.9
	c-0.5-0.7-1.3-1-2.2-0.9c-1.4,0-2.4,0.7-2.4,1.8c0,1.3,1.1,1.5,2.3,1.8c0.9,0.2,1.3,0.3,1.3,0.9c0,0.2-0.1,0.4-0.2,0.6
	c-0.3,0.3-0.7,0.4-1.1,0.4c-1.1,0-1.3-0.6-1.3-1.1L211.4,30.3z M208.8,32.1h1.1V26h-1.1V32.1z M208.6,24.7h1.4v-1.2h-1.4V24.7z
	 M205.8,29.2c0.1,0.6,0,1.1-0.3,1.6c-0.3,0.4-0.8,0.7-1.3,0.7c-1,0-1.3-0.7-1.3-1c0-1.2,1.7-1.2,2.2-1.2
	C205.4,29.1,205.6,29.1,205.8,29.2 M207,32.1c-0.1-0.5-0.1-1-0.1-1.5v-2.9c0-0.3-0.1-0.6-0.2-0.9c-0.5-0.6-1.3-1-2.1-0.9
	c-0.7-0.1-1.4,0.2-2,0.6c-0.3,0.3-0.4,0.7-0.4,1.1h1.1c0-0.2,0.1-1,1.2-1c0.4,0,0.8,0.1,1.1,0.4c0.2,0.3,0.2,0.6,0.2,1.3
	c-0.4,0-0.5,0-0.8,0c-0.7,0-1.4,0.1-2.1,0.4c-0.7,0.3-1.1,1-1.1,1.8c0,1,0.8,1.8,2.1,1.8c0.8,0,1.5-0.4,1.9-1.1c0,0.3,0,0.6,0.1,0.9
	L207,32.1z M199.2,32.1h1.1v-8.7h-1.1V32.1z M196.2,29.1c0.1,0.6,0,1.1-0.3,1.6c-0.3,0.4-0.8,0.7-1.3,0.7c-1,0-1.3-0.7-1.3-1
	c0-1.2,1.7-1.2,2.2-1.2C195.8,29.1,196,29.1,196.2,29.1 M197.4,32.1c-0.1-0.5-0.1-1-0.1-1.5v-2.9c0-0.3-0.1-0.6-0.2-0.9
	c-0.5-0.6-1.3-1-2.1-0.9c-0.7-0.1-1.4,0.2-2,0.6c-0.3,0.3-0.4,0.7-0.4,1.1h1.1c0-0.2,0.1-1,1.2-1c0.4,0,0.8,0.1,1.1,0.4
	c0.2,0.3,0.2,0.6,0.2,1.3c-0.4,0-0.5,0-0.8,0c-0.7,0-1.4,0.1-2.1,0.4c-0.7,0.3-1.1,1-1.1,1.8c0,1,0.8,1.8,2.1,1.8
	c0.8,0,1.5-0.4,1.9-1.1c0,0.3,0,0.6,0.1,0.9L197.4,32.1z M192.2,23.3H191l-2.6,7.5l-2.5-7.5h-1.3l3.1,8.7h1.3L192.2,23.3z M174.6,26
	v4.1c-0.1,1.1,0.7,2,1.8,2.1c0.1,0,0.3,0,0.4,0c0.8,0.1,1.6-0.4,1.9-1.1v1h1.2c0-0.3,0-1,0-1.1V26h-1.2v3.4c0,0.4-0.1,0.8-0.3,1.1
	c-0.3,0.5-0.9,0.7-1.4,0.7c-1.2,0-1.3-0.8-1.3-1.3v-3.9L174.6,26z M171.7,28.9c0,0.5,0,2.4-1.8,2.4c-1.4,0-1.7-1.2-1.7-2.3
	c0-0.4,0-2.4,1.7-2.4c0.5,0,1,0.2,1.3,0.6C171.6,27.7,171.8,28.3,171.7,28.9 M171.7,26.8c-0.4-0.7-1.1-1.1-1.9-1
	c-1.4,0-2.7,1-2.7,3.3c0,2.7,1.8,3.1,2.6,3.1c0.5,0,1.1-0.2,1.5-0.4c0.2-0.2,0.4-0.4,0.5-0.6v1h1.1c0-0.3,0-0.8,0-1v-7.7h-1.2
	L171.7,26.8z M160.8,32h1.1v-8.6h-1.2L160.8,32z M157.9,29.1c0.1,0.6,0,1.1-0.3,1.6c-0.3,0.4-0.8,0.7-1.3,0.7c-1,0-1.3-0.7-1.3-1
	c0-1.2,1.7-1.2,2.2-1.2C157.4,29,157.7,29,157.9,29.1 M159,32c-0.1-0.5-0.1-1-0.1-1.5v-2.9c0-0.3-0.1-0.6-0.2-0.9
	c-0.5-0.6-1.3-1-2.1-0.9c-0.7-0.1-1.4,0.2-2,0.6c-0.3,0.3-0.4,0.7-0.4,1.1h1.1c0-0.2,0.1-1,1.2-1c0.4,0,0.8,0.1,1.1,0.4
	c0.2,0.3,0.2,0.6,0.2,1.3c-0.4,0-0.5,0-0.8,0c-0.7,0-1.4,0.1-2.1,0.4c-0.7,0.3-1.1,1-1.1,1.8c0,1,0.8,1.8,2.1,1.8
	c0.8,0,1.5-0.4,1.9-1.1c0,0.3,0,0.6,0.1,0.9L159,32z M149.3,26.9h1.1v4c0,1,0.5,1.3,1.5,1.3c0.3,0,0.6,0,0.9-0.1v-0.9
	c-0.2,0-0.4,0.1-0.5,0.1c-0.8,0-0.8-0.5-0.8-0.8v-3.6h1.4V26h-1.4v-1.6l-1.1,0.4V26h-1.1L149.3,26.9z M147.1,32.1h1.1V26h-1.1V32.1z
	 M146.9,24.7h1.4v-1.3h-1.4V24.7z M140.9,29.3c0-0.5,0-2.5,1.8-2.5c1.3,0,1.7,1.1,1.7,2.2c0,0.7-0.1,1.3-0.5,1.9
	c-0.3,0.4-0.8,0.6-1.3,0.6C141,31.5,140.9,30,140.9,29.3 M139.9,34.4h1.1v-3c0.4,0.6,1.1,1,1.9,0.9c1.4,0,2.8-1,2.8-3.2
	s-1.3-3.1-2.6-3.1c-0.8,0-1.6,0.4-2.1,1.1v-1h-1.1c0,0.6,0,0.7,0,1L139.9,34.4z M134.4,24.9l0.9-1.2l0.8,1.2h1l-1.3-1.8h-1.1
	l-1.2,1.8H134.4z M133.4,29c0-1.9,1.2-2.4,1.9-2.4c1.1,0,1.8,0.8,1.8,2.3c0,1.8-1,2.4-1.8,2.4C133.9,31.4,133.4,30.3,133.4,29
	 M132.2,29.1c-0.2,1.6,1,3,2.5,3.2c0.2,0,0.3,0,0.5,0c1.7,0,3-1.3,3.1-2.9c0-0.1,0-0.2,0-0.3c0.2-1.6-0.9-3-2.5-3.2
	c-0.2,0-0.3,0-0.5,0C132.9,25.8,132.2,27.6,132.2,29.1 M124.1,23.3v8.7h1.2v-3.9h4.2v3.9h1.2v-8.7h-1.2v3.8h-4.2v-3.8L124.1,23.3z"
	/>
<path class="st1" d="M78.1,46.7c-0.1,0-0.2,0-0.3-0.1l-2-1c-0.1-0.1-0.3-0.2-0.3-0.3L72.4,39H68l-9.8,7.6c-0.1,0.1-0.3,0.1-0.4,0.2
	h-4.1c-0.2,0-0.3-0.1-0.4-0.2l-4-3.2c-0.1-0.1-0.2-0.3-0.3-0.5l-3.8-35l-4.7,38.2c0,0.3-0.3,0.6-0.7,0.6h-5.4
	c-0.3,0-0.5-0.2-0.6-0.4l-2.6-5.6h-4.4l-6.8,5.8c-0.1,0.1-0.3,0.2-0.5,0.2H0v-1.4h19.4l6.8-5.8c0.1-0.1,0.3-0.2,0.5-0.2h5
	c0.3,0,0.5,0.2,0.6,0.4l2.6,5.6h4.3l5.4-43.5c0-0.4,0.3-0.7,0.7-0.7c0.4,0,0.7,0.3,0.7,0.7l4.4,40.6l3.6,2.8h3.7l9.8-7.6
	c0.1-0.1,0.3-0.1,0.4-0.2h5c0.3,0,0.5,0.2,0.6,0.4l3.2,6.6l1.6,0.8h30.5v1.4L78.1,46.7z"/>
<path class="st0" d="M21.8,47.2l1.7,1.7l2.8,2.8v2.1c0,0.2,0.1,0.4,0.2,0.5l3.3,3.3l2.7,6.5c0.1,0.2,0.3,0.4,0.5,0.4h0.1
	c0.2,0,0.4-0.1,0.5-0.2l2.6-2.6l1.8-1.8l4.2-4.2h3l2.4,2.4c0.3,0.3,0.7,0.3,1,0c0,0,0,0,0,0l5.9-5.8h9.2l3.8,3.8
	c0.1,0.1,0.3,0.2,0.5,0.2h6.4c0.4,0,0.7-0.3,0.7-0.7l0,0v-3.9h3.3c0.2,0,0.4-0.1,0.5-0.2l1.8-1.8h2.5c0.4,0,0.7-0.3,0.7-0.7l0,0
	v-0.7h-3.7c-0.1,0-0.2,0.1-0.3,0.2l-1.8,1.8h-3.7c-0.4,0-0.7,0.3-0.7,0.7l0,0v3.9h-5.4l-3.8-3.8c-0.1-0.1-0.3-0.2-0.5-0.2h-9.8
	c-0.2,0-0.4,0.1-0.5,0.2l-5.5,5.5l-2.1-2.1c-0.1-0.1-0.3-0.2-0.5-0.2H42c-0.2,0-0.4,0.1-0.5,0.2l-4.4,4.4l-1.8,1.8l-1.9,1.9L31,56.9
	c0-0.1-0.1-0.2-0.2-0.2l-3.2-3.2v-2.1c0-0.2-0.1-0.4-0.2-0.5l-3-3l-1.5-1.5L21.8,47.2z M40.6,27.3L26,33.8l-3.6-16.4
	c0-0.1-0.1-0.2-0.2-0.3L18,12.9c-0.1-0.1-0.3-0.2-0.5-0.2h-3.4c-0.2,0-0.3,0.1-0.5,0.2l-5,4.4c-0.2,0.1-0.2,0.4-0.2,0.6l0.2,2.8
	c0,0.4,0.3,0.6,0.7,0.6h5.4l0.2,3.1c0,0.2,0.1,0.3,0.2,0.4l3.2,3.4L15.2,33c-0.1,0.1-0.1,0.2-0.1,0.4v10.1c0,0.4,0.3,0.7,0.7,0.7h3
	l0.1,0.1l0,0l1.1-0.9L19.5,43c-0.1-0.1-0.3-0.2-0.5-0.2h-2.6v-9.2l3.3-5c0.2-0.3,0.1-0.6-0.1-0.9l-3.4-3.6L16,20.5
	c0-0.4-0.3-0.7-0.7-0.7H10L9.8,18l4.6-4h2.9l3.9,3.8l3.8,17c0.1,0.4,0.4,0.6,0.8,0.5c0.1,0,0.1,0,0.2-0.1l14.4-6.5L40.6,27.3z
	 M102.7,9.2c0.1-0.1,0.2-0.3,0.2-0.5v-2c0-0.4-0.3-0.7-0.7-0.7l0,0h-2.4V2.3c0-0.2-0.1-0.4-0.2-0.5l-1.6-1.6C97.8,0.1,97.6,0,97.4,0
	H95c-0.2,0-0.4,0.1-0.5,0.2l-1.6,1.6c-0.1,0.1-0.2,0.3-0.2,0.5v5.8l-11.9,5.5L67.9,8.7c-0.3-0.1-0.5,0-0.7,0.2l-8.6,8.6h-3.9
	c-0.4,0-0.7,0.3-0.7,0.7V21h-4.5l0.2,1.4h5c0.4,0,0.7-0.3,0.7-0.7v-2.9h3.5c0.2,0,0.4-0.1,0.5-0.2l8.5-8.5L80.5,15
	c0.2,0.1,0.4,0.1,0.5,0l12.6-5.8c0.2-0.1,0.4-0.4,0.4-0.6V2.6l1.2-1.2h1.8l1.2,1.2v4.1c0,0.4,0.3,0.7,0.7,0.7l0,0h2.5v1l-2.8,2.8
	c-0.1,0.1-0.2,0.3-0.2,0.5v4c0,0.2,0.1,0.4,0.2,0.5l1,1l-6.9,6.9H90c-0.2,0-0.4,0.1-0.5,0.2l-3.2,3.2c-0.1,0.1-0.2,0.3-0.2,0.5v3.5
	c0,0.2,0.1,0.4,0.2,0.5l2.6,2.6v4.3l-5.4,5.4h2l4.6-4.6c0.1-0.1,0.2-0.3,0.2-0.5v-4.8c0-0.2-0.1-0.4-0.2-0.5l-2.7-2.6v-3l2.8-2.8H93
	c0.2,0,0.4-0.1,0.5-0.2l7.6-7.6c0.3-0.3,0.3-0.7,0-1c0,0,0,0,0,0l-1.3-1.3V12L102.7,9.2z"/>
</svg>
