<?xml version="1.0" encoding="utf-8"?>
<!-- Generator: Adobe Illustrator 21.0.0, SVG Export Plug-In . SVG Version: 6.00 Build 0)  -->
<svg version="1.1" id="Calque_1" xmlns="http://www.w3.org/2000/svg" xmlns:xlink="http://www.w3.org/1999/xlink" x="0px" y="0px"
	 viewBox="0 0 108.7 64.5" style="enable-background:new 0 0 108.7 64.5;" xml:space="preserve">
<style type="text/css">
	.st0{fill:#DA002F;}
	.st1{fill:#4F4F4F;}
</style>
<path class="st0" d="M78.1,46.7c-0.1,0-0.2,0-0.3-0.1l-2-1c-0.1-0.1-0.3-0.2-0.3-0.3L72.4,39H68l-9.8,7.6c-0.1,0.1-0.3,0.1-0.4,0.2
	h-4.1c-0.2,0-0.3-0.1-0.4-0.2l-4-3.2c-0.1-0.1-0.2-0.3-0.3-0.5l-3.8-35l-4.7,38.2c0,0.3-0.3,0.6-0.7,0.6h-5.4
	c-0.3,0-0.5-0.2-0.6-0.4l-2.6-5.6h-4.4l-6.8,5.8c-0.1,0.1-0.3,0.2-0.5,0.2H0v-1.4h19.4l6.8-5.8c0.1-0.1,0.3-0.2,0.5-0.2h5
	c0.3,0,0.5,0.2,0.6,0.4l2.6,5.6h4.3l5.4-43.5c0-0.4,0.3-0.7,0.7-0.7c0.4,0,0.7,0.3,0.7,0.7l4.4,40.6l3.6,2.8h3.7l9.8-7.6
	c0.1-0.1,0.3-0.1,0.4-0.2h5c0.3,0,0.5,0.2,0.6,0.4l3.2,6.6l1.6,0.8h30.5v1.4L78.1,46.7z"/>
<path class="st1" d="M21.8,47.2l1.7,1.7l2.8,2.8v2.1c0,0.2,0.1,0.4,0.2,0.5l3.3,3.3l2.7,6.5c0.1,0.2,0.3,0.4,0.5,0.4h0.1
	c0.2,0,0.4-0.1,0.5-0.2l2.6-2.6l1.8-1.8l4.2-4.2h3l2.4,2.4c0.3,0.3,0.7,0.3,1,0c0,0,0,0,0,0l5.9-5.8h9.2l3.8,3.8
	c0.1,0.1,0.3,0.2,0.5,0.2h6.4c0.4,0,0.7-0.3,0.7-0.7l0,0v-3.9h3.3c0.2,0,0.4-0.1,0.5-0.2l1.8-1.8h2.5c0.4,0,0.7-0.3,0.7-0.7l0,0
	v-0.7h-3.7c-0.1,0-0.2,0.1-0.3,0.2l-1.8,1.8h-3.7c-0.4,0-0.7,0.3-0.7,0.7l0,0v3.9h-5.4l-3.8-3.8c-0.1-0.1-0.3-0.2-0.5-0.2h-9.8
	c-0.2,0-0.4,0.1-0.5,0.2l-5.5,5.5l-2.1-2.1c-0.1-0.1-0.3-0.2-0.5-0.2H42c-0.2,0-0.4,0.1-0.5,0.2l-4.4,4.4l-1.8,1.8l-1.9,1.9L31,56.9
	c0-0.1-0.1-0.2-0.2-0.2l-3.2-3.2v-2.1c0-0.2-0.1-0.4-0.2-0.5l-3-3l-1.5-1.5L21.8,47.2z M40.6,27.3L26,33.8l-3.6-16.4
	c0-0.1-0.1-0.2-0.2-0.3L18,12.9c-0.1-0.1-0.3-0.2-0.5-0.2h-3.4c-0.2,0-0.3,0.1-0.5,0.2l-5,4.4c-0.2,0.1-0.2,0.4-0.2,0.6l0.2,2.8
	c0,0.4,0.3,0.6,0.7,0.6h5.4l0.2,3.1c0,0.2,0.1,0.3,0.2,0.4l3.2,3.4L15.2,33c-0.1,0.1-0.1,0.2-0.1,0.4v10.1c0,0.4,0.3,0.7,0.7,0.7h3
	l0.1,0.1l0,0l1.1-0.9L19.5,43c-0.1-0.1-0.3-0.2-0.5-0.2h-2.6v-9.2l3.3-5c0.2-0.3,0.1-0.6-0.1-0.9l-3.4-3.6L16,20.5
	c0-0.4-0.3-0.7-0.7-0.7H10L9.8,18l4.6-4h2.9l3.9,3.8l3.8,17c0.1,0.4,0.4,0.6,0.8,0.5c0.1,0,0.1,0,0.2-0.1l14.4-6.5L40.6,27.3z
	 M102.7,9.2c0.1-0.1,0.2-0.3,0.2-0.5v-2c0-0.4-0.3-0.7-0.7-0.7l0,0h-2.4V2.3c0-0.2-0.1-0.4-0.2-0.5l-1.6-1.6C97.8,0.1,97.6,0,97.4,0
	H95c-0.2,0-0.4,0.1-0.5,0.2l-1.6,1.6c-0.1,0.1-0.2,0.3-0.2,0.5v5.8l-11.9,5.5L67.9,8.7c-0.3-0.1-0.5,0-0.7,0.2l-8.6,8.6h-3.9
	c-0.4,0-0.7,0.3-0.7,0.7V21h-4.5l0.2,1.4h5c0.4,0,0.7-0.3,0.7-0.7v-2.9h3.5c0.2,0,0.4-0.1,0.5-0.2l8.5-8.5L80.5,15
	c0.2,0.1,0.4,0.1,0.5,0l12.6-5.8c0.2-0.1,0.4-0.4,0.4-0.6V2.6l1.2-1.2h1.8l1.2,1.2v4.1c0,0.4,0.3,0.7,0.7,0.7l0,0h2.5v1l-2.8,2.8
	c-0.1,0.1-0.2,0.3-0.2,0.5v4c0,0.2,0.1,0.4,0.2,0.5l1,1l-6.9,6.9H90c-0.2,0-0.4,0.1-0.5,0.2l-3.2,3.2c-0.1,0.1-0.2,0.3-0.2,0.5v3.5
	c0,0.2,0.1,0.4,0.2,0.5l2.6,2.6v4.3l-5.4,5.4h2l4.6-4.6c0.1-0.1,0.2-0.3,0.2-0.5v-4.8c0-0.2-0.1-0.4-0.2-0.5l-2.7-2.6v-3l2.8-2.8H93
	c0.2,0,0.4-0.1,0.5-0.2l7.6-7.6c0.3-0.3,0.3-0.7,0-1c0,0,0,0,0,0l-1.3-1.3V12L102.7,9.2z"/>
</svg>
