<svg xmlns="http://www.w3.org/2000/svg" width="505" height="343" viewBox="0 0 505 343">
  <metadata><?xpacket begin="﻿" id="W5M0MpCehiHzreSzNTczkc9d"?>
<x:xmpmeta xmlns:x="adobe:ns:meta/" x:xmptk="Adobe XMP Core 5.6-c138 79.159824, 2016/09/14-01:09:01        ">
   <rdf:RDF xmlns:rdf="http://www.w3.org/1999/02/22-rdf-syntax-ns#">
      <rdf:Description rdf:about=""/>
   </rdf:RDF>
</x:xmpmeta>
                                                                                                    
                                                                                                    
                                                                                                    
                                                                                                    
                                                                                                    
                                                                                                    
                                                                                                    
                                                                                                    
                                                                                                    
                                                                                                    
                                                                                                    
                                                                                                    
                                                                                                    
                                                                                                    
                                                                                                    
                                                                                                    
                                                                                                    
                                                                                                    
                                                                                                    
                                                                                                    
                           
<?xpacket end="w"?></metadata>
<defs>
    <style>
      .cls-1 {
        fill: #858585;
        fill-rule: evenodd;
      }
    </style>
  </defs>
  <g id="Carte_Valais" data-name="Carte Valais">
    <path id="Forme_3" data-name="Forme 3" class="cls-1" d="M781.09,2233l-6.788-2.71,0.271-5.69-2.855-.75-9.108,9.12h-7.341l-2.8-7.71-14.25-14.27v-14.25l-8.677-8.69v-9.03l-7.81-7.82v-8.23l-4.643-2.32-6.575-10.05h-5.356v-6.26h-4.5v4.52H694.41v6.97l-4.959-4.96v-7.84h3.87v-7.81l-2.655-2.65v-8.41l3.8-3.8h-13.6v-4.69H669.225l-6.327-6.34v-6.54l6.225-6.24-3.9-10.77,4.967-4.97v-7.99h4.166v-6.95h7.983v-20.58H678.25l-11.186-11.21v-4.43h-5.476l-4.592-4.6v-10.27h5.287l4.086-4.09v-16.42H682.18l10.146,10.16v21.81h9.343l3.823,16.16,13.635,10.6,7.6,7.47,0,0.31c0.019,4.26.108,7.25,0.232,7.83a8.127,8.127,0,0,0,1.081,1.02c1.752,1.51,5.011,4.32,6.641,7.89,1.606,3.52,2.662,6.18,3.149,7.45l1.951,3.95,4.766-4.77h7.115l4.985-4.99v-8.36l22.743-13.91v-17.36l8.411-8.42h13.937v-13.16l16.239-6.72v12.2l12.2-2.73,11.555-11.57h9.64v-4.84h15.889v8.14H882l4.732-4.74-5.5-6.63v-6.09h19.612v-9.31l5.311-5.32,20.858,9.62,4.97,4.97,21.078-11.72,17.284-17.26h13.2l17.611-12.69h9.48l1.09-5.03,0.02-8.18h8.34l1.04-9.04h9.21l4.51,4.52h17.7l6.25,6.26h9.72l5.88,5.9,28.36-6.24,9.39-8.97,14.84-9.75,3.13-23.62,8.4-9.11,6.79,0.71-0.42,15.24-4.78,10.27,7.26,23.18,6.16,3.08h4.89l3.6,3.61-9.08,9.1v4.08h-16.66v14.69l-4.24,4.25h-5.82v4.44l-7.89,7.9h-8.08v8.32l2.78,2.78v8.45l-7.03,7.04h-7.9v7.64h-5.63l-7.91,7.91v8.08h-7.63v5.82h-17.79l-13.45,13.48v4.06h6.94v5.99l5.13,5.13h5.24l7.35,19.29-5.92,5.93v13.98h-7.63l-3.04,3.05v6.82l-15.2,4.39-9.19.68v9.29l-2.42,4.84,2.79,10.46-6.27,5.92v7.73h-4.56l-4.17,7.99H991.45l-7.729,7.74v11.29l-2.257,2.78v4.94l2,2v4.98l-16.332-5.9-3.8,3.8h-5.666l-8.968-8.98-6.539,6.55h-5.668l-2.854-2.86v-8.09H927.8l-7.288-10.6h-7.429v2.78h-13.81v-9.04h-9.526l-4.259,4.27v11.37H868.575l-2,2.01v5.64H856.088l-10.4,12.66h-4.727l-3.766,3.77-8.745-8.75-6.433,3.45-9.689-3.81-4.76,5.33-6.664,8.55h-9.73l-4.518,4.53Zm-24.773-1.53h5.672l9.278-9.29,4.859,1.28-0.278,5.84,4.766,1.9,4.926-6.17,5.012-5.03h9.618l6.249-8.01,5.486-6.14,10.013,3.94,6.8-3.66,8.474,8.48,3.146-3.15h4.64l10.4-12.66h9.7v-4.76l2.88-2.89h16.037v-10.49l5.136-5.15h11.643v9.04h10.817v-2.78H921.3l7.288,10.6h6.548v8.97l1.978,1.98h4.427l7.159-7.17,9.588,9.6h4.426l4.031-4.03,15.221,5.49v-2.22l-2-2v-6.09l2.256-2.78v-11.38l8.608-8.62h23l4.16-7.99h3.98v-6.87l6.08-5.75-2.7-10.15,2.52-5.04V2128l10.49-.78,13.89-4.03v-6.31l3.92-3.93h6.75v-13.1l5.68-5.69-6.64-17.41h-4.83l-6.01-6.01v-5.11h-6.94v-6.19l14.33-14.35h16.91v-5.82h7.64v-7.2l8.78-8.79h4.75v-7.64h8.78l6.15-6.16v-7.21l-2.78-2.78v-10.44h8.96l7.01-7.02v-5.32h6.7l3.37-3.37v-15.57h16.66v-3.2l8.46-8.48-2.11-2.11h-4.62l-7.05-3.53-7.62-24.34,4.96-10.65,0.31-13.4-4.67-.49-7.57,8.21-3.15,23.83-15.32,10.04-9.58,9.18-29.57,6.5-6.02-6.04h-9.72l-6.25-6.26h-17.7l-4.51-4.52h-7.25l-1.04,9.04h-8.19l-0.03,6.92-1.36,6.29h-10.2l-17.619,12.69H970.959l-17.087,17.02-22.155,12.32-5.673-5.68-19.573-8.97-4.137,4.14v10.18h-19.61v4.06l6.031,7.27-6.136,6.14h-16.85v-8.14H852.874v4.84H842.357l-11.424,11.43-14.451,3.24v-11.83l-13.246,5.48v13.66H788.421l-7.533,7.54v17.58l-22.743,13.91v8.14l-5.861,5.87h-7.117l-5.8,5.8-2.933-5.95c-0.48-1.25-1.522-3.88-3.111-7.35-1.5-3.27-4.593-5.95-6.258-7.39-1.047-.9-1.438-1.24-1.567-1.83-0.186-.87-0.247-4.67-0.265-7.83l-7.089-6.97-13.985-10.87-3.673-15.52h-9.656v-22.69l-9.269-9.28H667.866v15.54l-4.963,4.97h-4.41v8.15l3.715,3.72h6.352v5.31l10.31,10.33h4.963v23.58h-7.984v6.95h-4.166v7.11l-4.731,4.73,3.9,10.78-6.461,6.47v5.3l5.449,5.46h12.515v4.69h15.72l-5.916,5.92v7.17l2.655,2.65v9.92h-3.87v5.72l1.965,1.97v-4.85h6.248v-4.52h7.493v6.26h4.668l6.8,10.39,5.108,2.55v8.54l7.81,7.82v9.03l8.678,8.69v14.25l14.1,14.22Zm-12.773-101.91-13.814-37.92-32.082-18.23,0.864-1.53,32.642,18.55,13.3,36.52,91.575-55.96-4.8-10.49,37.912-24.41,20.813,17.29,12.445,0.29,82.43-12.98,29.243-6.56,0.39,1.71-29.305,6.57-82.641,13.01h-0.079l-13.132-.3-20.3-16.86-35.557,22.89,4.817,10.52Z" transform="translate(-657 -1890)"/>
  </g>
</svg>
