<?xml version="1.0" encoding="utf-8"?>
<!-- Generator: Adobe Illustrator 21.0.0, SVG Export Plug-In . SVG Version: 6.00 Build 0)  -->
<svg version="1.1" id="Layer_1" xmlns="http://www.w3.org/2000/svg" xmlns:xlink="http://www.w3.org/1999/xlink" x="0px" y="0px"
	 viewBox="0 0 505 343" style="enable-background:new 0 0 505 343;" xml:space="preserve">
<style type="text/css">
	.st0{fill:#858585;}
</style>
<g id="Carte_Valais">
	<path id="Forme_3" class="st0" d="M124.1,343l-6.8-2.7l0.3-5.7l-2.9-0.8l-9.1,9.1h-7.3l-2.8-7.7L81.2,321v-14.3l-8.7-8.7v-9
		l-7.8-7.8V273l-4.6-2.3l-6.6-10.1h-5.4v-6.3h-4.5v4.5h-6.2v7l-5-5V253h3.9v-7.8l-2.7-2.7v-8.4l3.8-3.8H23.9v-4.7H12.2l-6.3-6.3
		v-6.5l6.2-6.2l-3.9-10.8l5-5v-8h4.2v-6.9h8v-20.6h-4.1l-11.2-11.2v-4.4H4.6L0,135.1v-10.3h5.3l4.1-4.1v-16.4h15.8l10.1,10.2v21.8
		h9.3l3.8,16.2L62.1,163l7.6,7.5v0.3c0,4.3,0.1,7.3,0.2,7.8c0.3,0.4,0.7,0.7,1.1,1c1.8,1.5,5,4.3,6.6,7.9c1.6,3.5,2.7,6.2,3.1,7.4
		l2,3.9l4.8-4.8h7.1l5-5v-8.4l22.7-13.9v-17.4l8.4-8.4h13.9V128l16.2-6.7v12.2l12.2-2.7l11.6-11.6h9.6v-4.8h15.9v8.1H225l4.7-4.7
		l-5.5-6.6V105h19.6v-9.3l5.3-5.3L270,100l5,5l21.1-11.7L313.3,76h13.2l17.6-12.7h9.5l1.1-5l0-8.2h8.3l1-9h9.2l4.5,4.5h17.7l6.2,6.3
		h9.7l5.9,5.9l28.4-6.2l9.4-9l14.8-9.8l3.1-23.6l8.4-9.1l6.8,0.7L487.9,16l-4.8,10.3l7.3,23.2l6.2,3.1h4.9l3.6,3.6l-9.1,9.1v4.1
		h-16.7V84l-4.2,4.3h-5.8v4.4l-7.9,7.9h-8.1v8.3l2.8,2.8v8.4l-7,7h-7.9v7.6h-5.6l-7.9,7.9v8.1h-7.6v5.8h-17.8l-13.5,13.5v4.1h6.9v6
		l5.1,5.1h5.2l7.4,19.3l-5.9,5.9v14h-7.6l-3,3.1v6.8l-15.2,4.4l-9.2,0.7v9.3l-2.4,4.8l2.8,10.5l-6.3,5.9v7.7h-4.6l-4.2,8h-23.3
		l-7.7,7.7v11.3l-2.3,2.8v4.9l2,2v5l-16.3-5.9l-3.8,3.8h-5.7l-9-9l-6.5,6.6h-5.7l-2.9-2.9v-8.1h-5.8l-7.3-10.6h-7.4v2.8h-13.8v-9
		h-9.5l-4.3,4.3v11.4h-16.9l-2,2v5.6h-10.5L188.7,323H184l-3.8,3.8l-8.7-8.8l-6.4,3.4l-9.7-3.8l-4.8,5.3l-6.7,8.6h-9.7l-4.5,4.5
		L124.1,343z M99.3,341.5h5.7l9.3-9.3l4.9,1.3l-0.3,5.8l4.8,1.9l4.9-6.2l5-5h9.6l6.2-8l5.5-6.1l10,3.9l6.8-3.7l8.5,8.5l3.1-3.1h4.6
		l10.4-12.7h9.7V304l2.9-2.9h16v-10.5l5.1-5.2h11.6v9h10.8v-2.8h9.7l7.3,10.6h6.5v9l2,2h4.4l7.2-7.2l9.6,9.6h4.4l4-4l15.2,5.5V315
		l-2-2v-6.1l2.3-2.8v-11.4l8.6-8.6h23l4.2-8h4v-6.9l6.1-5.8l-2.7-10.2l2.5-5V238l10.5-0.8l13.9-4v-6.3l3.9-3.9h6.8v-13.1l5.7-5.7
		l-6.6-17.4h-4.8l-6-6v-5.1h-6.9v-6.2l14.3-14.3h16.9v-5.8h7.6v-7.2l8.8-8.8h4.8v-7.6h8.8l6.1-6.2v-7.2l-2.8-2.8V99.1h9l7-7v-5.3
		h6.7l3.4-3.4V67.8h16.7v-3.2l8.5-8.5l-2.1-2.1h-4.6l-7.1-3.5l-7.6-24.3l5-10.7l0.3-13.4l-4.7-0.5l-7.6,8.2l-3.2,23.8l-15.3,10
		l-9.6,9.2l-29.6,6.5l-6-6h-9.7l-6.2-6.3h-17.7l-4.5-4.5h-7.3l-1,9h-8.2l0,6.9l-1.4,6.3h-10.2L327,77.5H314l-17.1,17l-22.2,12.3
		l-5.7-5.7l-19.6-9l-4.1,4.1v10.2h-19.6v4.1l6,7.3l-6.1,6.1h-16.8v-8.1h-12.9v4.8h-10.5l-11.4,11.4l-14.5,3.2v-11.8l-13.2,5.5v13.7
		h-14.8l-7.5,7.5v17.6l-22.7,13.9v8.1l-5.9,5.9h-7.1l-5.8,5.8l-2.9-5.9c-0.5-1.3-1.5-3.9-3.1-7.3c-1.5-3.3-4.6-5.9-6.3-7.4
		c-1-0.9-1.4-1.2-1.6-1.8c-0.2-0.9-0.2-4.7-0.3-7.8l-7.1-7l-14-10.9l-3.7-15.5h-9.7v-22.7l-9.3-9.3H10.9v15.5l-5,5H1.5v8.2l3.7,3.7
		h6.4v5.3l10.3,10.3h5v23.6h-8v6.9h-4.2v7.1l-4.7,4.7l3.9,10.8l-6.5,6.5v5.3l5.4,5.5h12.5v4.7h15.7l-5.9,5.9v7.2l2.7,2.7v9.9h-3.9
		v5.7l2,2v-4.8h6.2v-4.5h7.5v6.3h4.7l6.8,10.4l5.1,2.6v8.5l7.8,7.8v9l8.7,8.7v14.3l14.1,14.2L99.3,341.5z M86.5,239.6l-13.8-37.9
		l-32.1-18.2l0.9-1.5l32.6,18.6l13.3,36.5l91.6-56l-4.8-10.5l37.9-24.4l20.8,17.3l12.4,0.3l82.4-13l29.2-6.6l0.4,1.7l-29.3,6.6
		l-82.6,13h-0.1l-13.1-0.3L212,148.3l-35.6,22.9l4.8,10.5L86.5,239.6z"/>
	<circle class="st0" cx="39" cy="182" r="4"/>
	<circle id="Ellipse_911_copie" class="st0" cx="73" cy="201" r="4"/>
	<circle id="Ellipse_911_copie_2" class="st0" cx="87" cy="238" r="4"/>
	<circle id="Ellipse_911_copie_3" class="st0" cx="180" cy="182" r="4"/>
	<circle id="Ellipse_911_copie_3_copy" class="st0" cx="176" cy="171" r="4"/>
	<circle id="Ellipse_911_copie_5" class="st0" cx="213" cy="148" r="4"/>
	<circle id="Ellipse_911_copie_6" class="st0" cx="232" cy="164" r="4"/>
	<circle id="Ellipse_911_copie_7" class="st0" cx="328" cy="152" r="4"/>
	<circle id="Ellipse_911_copie_8" class="st0" cx="356" cy="145" r="4"/>
</g>
</svg>
